<?xml version="1.0" encoding="UTF-8"?>
<svg xmlns="http://www.w3.org/2000/svg" width="380.16" height="165.81" viewBox="0 0 380.16 165.81">
  <defs>
    <style>
      .cls-1 {
        fill: #401f0f;
        stroke-width: 0px;
      }

      .cls-2 {
        fill: none;
        stroke: red;
        stroke-linecap: round;
        stroke-linejoin: round;
        stroke-width: 12px;
      }
    </style>
  </defs>
  <g id="text">
    <path class="cls-1" d="M55.12,29.34l-.45,1.2-1.05,1.65c-1.2,2.25-3.15,5.7-3.6,6-.45.3-.15.9-.9,1.65-.15.15-.3.15-.45.6-.75,1.95-1.65,3.15-1.8,3.45-.6.9-.9,1.95-1.05,2.25-.15.15-.45,0-.6.45-.15.9-5.85,9.45-6,9.45-.3.15-.15,1.5-.75,1.5-.15-.15-2.7,3.75-4.05,6.45-.15.3-.3,1.05-.45,1.05s-.3.3-.6.6c-.15.15-.3.15-.45.45,0,.45-1.5,2.7-4.05,6.9-.75,1.5-4.95,9.45-5.4,10.05-.15.3-1.8,2.55-3,4.95-.3.6-1.2.9-1.2,1.8l-.3.6c0,.15,0,.45-.15.45-.45.15-.15.6-.45,1.05-.6.9-1.5,2.4-2.55,4.5,0,.15,0,.45-.3.75-1.8,1.5-1.8,7.2-3.75,7.2h-.6c-1.05,0-2.7,1.5-2.85,1.5-.45,0-1.05-.3-1.05-.45,0-1.5-1.35-1.65-1.65-1.8-.9-.9-1.2-1.35-1.2-1.95,0-.75,1.2-1.65,2.7-3.3.15-.15,0-.3.3-.6,1.2-1.5,2.1-3,2.25-3,.3,0,.75-1.95,1.2-2.1.3-.15.75-1.05,1.2-1.65.3-.45.9-.75.9-.9-.15-.45,11.25-19.05,11.4-19.2.15,0,0-.3.3-.9.9-.45,1.5-2.55,1.8-2.7.3-.15.6-.75.6-.9.15-.6,1.05-1.8,1.2-1.8.3,0,6.3-11.1,7.05-11.25.3,0,.6-1.65,1.35-2.4.3-.3.9-2.55,1.65-2.4.15,0,.3-.9.6-1.05.45-.15,1.8-3.75,2.25-4.2.75-.9,1.8-2.85,3-5.1,0-.45.45-.45.45-.45l2.4-3.9c.3-.9,1.8-3.15,2.1-3.6.15-.15,3.3-5.4,3.3-5.4,0,0-6.9.15-7.35.15-1.65,0-3.45.15-5.7.15h-.6c-1.5,0-2.4.45-3.6.45h-.75c-.45,0-.9.15-1.2.15-2.1,0-3.45.6-4.95.6-.3,0-.75-.15-.9-.15-.6,0-2.85.75-4.95.75-.6,0-1.2.3-1.8.3-.3-.15-.6-.15-.75-.15-.6,0-.15.9-1.65.9h-.6c-2.1-.3-4.5-1.65-4.5-2.85,0-.3.15-.45.45-.75.3-.15.75-.75,1.35-.9.45-.3,1.2-1.65,2.1-1.95.15-.15.45-.15.6-.15,1.35,0,3,1.5,6.3,1.5.75,0,1.05.75,3.45.75.6,0,1.5-.15,2.55-.15h1.2c1.5,0,4.95-.45,8.55-.45h3.15c.45,0,1.2.15,2.1.15.3,0,.75,0,1.05-.15.6,0,7.2.15,7.2.15,0,0,1.2-1.95,1.2-2.55.15-.9.9-1.8.9-2.55,0-.3.3-.3.75-1.65.3-.75,2.1-1.35,2.25-1.35.15-.15.9-.6,1.35-.6.3,0,.45.45.45.45,0,0,.75-.45,1.5-.45,0,0,2.25,2.55,2.1,2.7-3.15,2.85-4.8,6-4.8,6h7.2c.45-.15.75-.15,1.05-.15.45,0,.75.15,1.8.15.3,0,.6-.15,1.5-.15h1.5c.6,0,1.5-.3,2.7-.45.3,0,.75-.15,1.5-.15h.75c1.2,0,1.5-.15,2.4-.15.45,0,1.05-.15,1.5-.15.6,0,1.05-.15,1.8-.15.45,0,1.2-.3,1.95-.3,1.05,0,2.25-.15,3.15-.15l1.65-.15c1.8,0,5.4-.3,13.35-1.65.45-.15.9-.15,1.35-.15,1.65,0,2.4.6,2.4.9s-.15.3-.15.9-1.35,1.35-1.5,1.35c-.3,0-2.7.9-4.2.9-.3,0-.75,0-.9-.15-.15-.15-.3-.15-.6-.15-1.35,0-3.45.3-4.8.3-.3,0-.6-.15-.9-.15s-1.2.15-1.5.15c-1.2,0-2.85.3-3.6.3h-7.05c-1.2,0-4.5.45-14.85.6-.75,0-8.4.3-8.4.3,0,0-2.7,4.05-2.85,4.5Z"/>
    <path class="cls-1" d="M78.22,96.54c2.85-1.65,2.4-1.8,3.15-2.25.9-.6,1.35-1.65,1.65-1.8.45-.15,1.65-1.35,2.4-1.95.45-.3.75-.6,1.05-.6s.6.15.6.45-.3.75-.75,1.2c0,0-1.95,2.1-4.5,4.05-.3.45-1.05,1.05-1.5,1.65l-.75.45c0,.3,0,.45-.15.45-2.1,1.2-5.4,3.75-8.85,3.75-1.5-.15-2.4-.3-2.85-1.5,0-.15-1.05-.45-1.05-.9s-.6-.75-.6-1.35l-.3-1.95c0-3.6,1.5-7.2,3-10.2.3-.15.45-.45.45-.9,0-.3,1.35-3.3,1.65-3.6.15-.3.45-.3.45-.6,0-.15,2.7-5.7,2.7-5.7,0-.15-4.05,3.9-6.75,6-.45.15-4.35,4.35-4.8,4.5-1.8.9-7.65,8.1-7.95,8.25-1.05.45-1.5.9-1.5.9.15.15-7.8,9.75-9.75,9.6-.15,0-.45-.3-.75-.3h-.75c-2.25,0-2.7-2.1-2.7-2.7,0-.3.3-.6.3-.9,0-2.25,1.05-3.15,1.05-3.45.15-.3.75-2.1,1.05-2.4.3-.3.75-.45.75-.6l2.4-4.8c.15-.45.9-.9.9-1.2.3-1.65,1.95-3.15,1.95-3.15,0,0,0-.45.9-1.8,4.35-6.45,4.8-7.5,4.8-7.5,1.05-2.4,2.25-2.85,2.4-4.05,0-.3.45-.9.9-1.65,3-4.65,9.15-14.55,9.3-15.3,0-.3.9-1.8,1.05-1.95.15-.3,0-.6.6-.9.9-.6,1.05-2.1,1.95-2.85.9-2.1,3.9-6.45,4.8-8.25,0-.45.6-1.2.75-1.35.9-1.05,1.5-2.25,1.95-3,3-6.3,8.55-13.35,8.55-13.8,0-.15.6-1.65,1.35-1.95.3-.15,2.1-2.25,2.4-2.55.9-1.35,1.65-1.35,2.25-2.1.15-.3,2.85-2.4,3.9-2.85.6-.3,1.5-1.05,1.95-1.35,1.35-.75,2.1-.9,2.85-.9.45,0,.6.15,1.35.15.3,0,.6-.15.9-.15.45,0,.75.15,1.2.9v.6c0,.3,0,.6.15.6,0,0-.15.75-.15,1.05,0,1.5-.15,3.45-1.35,6.6-.3.9-1.05,2.25-1.05,2.7-2.4,4.2-6.3,8.85-8.4,11.25l-1.05,1.65c-.15.3-2.7,3.6-3.15,4.05l-3.9,4.35c-2.7,3-6.75,7.8-6.75,7.8,0,0-4.5,5.7-4.95,5.7-.6,0-1.05,1.05-1.35,1.35-1.65,2.1-2.7,2.85-6.6,7.05-.6.6-1.5,1.35-2.85,3.3l-.75,1.2c-2.4,3.75-4.35,7.65-4.95,7.95-.15.15-.3,1.2-.9,1.65-.45.3-1.5,2.7-1.65,2.85l-.75,1.65c.15-.45-3.75,6-3.75,7.05-.15.6-2.7,4.95-3.15,6-.15.45-1.05,1.95-1.05,2.85,0,.15,1.95-1.65,1.95-1.65,4.35-6,18.9-19.05,19.05-19.35.75-1.65,6.6-6.15,7.05-6.6.3-.45.75-1.65,1.2-1.65,1.35-.15,3-2.85,3.9-2.85.15,0,1.35,0,1.65.3.3,0,1.35,1.5,1.5,1.8,0,.3,0,.6-.15.9,0,.15.45.75.45,1.2,0,.15-.15.45-.3.6,0,0-2.1,3-2.1,3.3l-2.1,4.05c0,.15-.15.75-.3,1.05-.15.75-.75,1.5-.75,1.5,0,0-.9,1.8-.9,2.1-.15.45-2.55,4.2-2.7,4.95-.3,1.35-1.2,4.2-1.2,5.25,0,1.2.15,2.1.6,2.4,0,.15.6.45,1.2.45s1.05-.15,1.5-.3l1.65-.75c.15,0,.3-.15.45-.15l1.35-1.05ZM72.82,56.49s10.2-12.15,11.4-13.35l5.85-7.5c2.55-3.75.6-.6,4.05-5.7,4.05-6,5.4-8.25,6.45-12.6,0-.15.15-.75.3-2.1,0-.3-.15-.45-.9-.45-.15,0-.9.6-1.35.6-.15,0-.45.15-.6.3-1.5,1.5-2.7,1.8-3.9,3.15-1.35,1.5-2.55,3-3.6,4.5-.9,1.2-2.55,3.75-4.05,5.55-.3.6-.45,1.35-.9,1.5-.45.3-1.95,3.15-1.95,3,.3-.45-7.8,12.9-8.7,14.7-.6,1.05-1.95,3.15-1.95,3.15-.3.45-9.15,15-9.15,15,0,0,7.35-7.8,7.5-8.1.45-.75,1.5-1.65,1.5-1.65Z"/>
    <path class="cls-1" d="M96.67,88.59c-.15,0-.45-.15-.45-.45,0,0,.3-.15.45-.15.6-.45,1.65-1.5,2.85-1.5h1.35c-.15-.15-.15-.3-.15-.45,0-.45,2.55-1.5,3.15-1.65,1.2-.45,1.8-1.35,2.7-1.65,1.65-.6.15-.15,2.55-1.8.15-.3,1.5-1.35,1.65-2.25l1.65-2.55c.45-.45.75-2.1.75-3.3,0-.75-.15-1.35-.45-1.5-.3-.15-.75-.3-.9-.3h-.75c-1.05,0-3,.9-5.25,3.15-.3.3-1.05.3-1.35.6l-.45.45c-1.5,1.65-3.6,4.05-5.25,6.45-.3.45-2.55,4.35-2.85,4.65-.9.75-.3,1.8-1.05,2.85-1.05,1.5-.6,2.4-1.05,3.6-.15.45-.3.9-.3,1.5,0,1.05.3,1.95.3,2.1,0,.75.45,1.8.75,1.95.15.15.3.45.45.45s.15.3.3.45c1.2,1.5,3.15,1.8,4.35,1.8.75,0,1.65-.15,2.25-.3,1.65-.45,3.45-.6,4.35-1.5.3-.3.6-.45.9-.45.15,0,1.5-.9,2.55-1.35.9-.3,1.65-1.05,2.4-1.5.45-.3,1.2-.75,1.2-.9,0-.45.75-.3,1.2-.75.75-.6,1.35-1.65,1.65-1.8.45-.15,1.65-1.2,2.4-1.8.3-.3,1.05-.75,1.35-.75s.45.15.45.45-.45.75-.9,1.2c0,0-4.95,4.95-8.85,7.2l-3.3,1.95c-1.35.75-4.35,2.1-4.8,2.1-.9.15-1.05.75-2.1.75-.3,0-.45.15-.75.15h-1.05c-.15,0-1.2.45-2.85.45-.75,0-1.8-.15-2.85-.45-3.15-1.05-5.1-3.15-5.25-9.75.15-1.8.9-3.75,1.5-5.1-1.05.45-2.4,2.4-3,2.4-.3,0-.6-.15-.6-.3s.15-.6.45-.9c1.8-1.8,3.9-4.35,4.95-5.55.6-.15.3-.45.75-1.35l1.35-1.2,1.05-1.5c1.8-1.8,3.3-2.7,3.45-3,2.1-2.4,5.55-4.35,5.85-4.5.3-.15,2.4-1.8,2.85-1.8.3-.15,2.1-1.65,2.4-1.65s.75-.75,2.55-.75c.15,0,.6-.15.75-.15.3,0,.6-.15.75-.15h.75c.75,0,1.95,1.2,1.95,1.2,0,0,.3-.15.45-.15.75,0,2.4,1.35,2.7,1.8l.45,1.05c.15.15.15.45.15.75,0,.6-.15,1.5-.15,1.35.15.3.15.6.15.9,0,.45,0,.75-.15,1.05-.15.3-.45,1.05-.9,1.5-.15.15-1.05.75-.9.9.15.3-.75.75-1.8,1.5l-1.35.75c-.6.3-2.55,1.35-2.85,1.65-.6,0-.75.15-.75.15,0,0-1.5,1.2-4.95,2.4,0,0-.6.15-1.05.15s-1.35.6-1.5.6c-.3,0-.9.3-1.05.45-.15.15-.45.3-.6.3-.6.75-3.9,1.65-4.2,1.65-.3.15-.45.15-.45.15Z"/>
    <path class="cls-1" d="M203.32,65.34c-.3.3-2.25,1.95-2.25,2.25,0,.45-1.8.3-5.4,3.75-1.05,1.05-1.2,1.35-1.8,1.5-5.1,4.05-10.35,8.85-18.6,14.25l-3.6,2.25c-1.95,1.95-3.6,2.55-3.9,2.7-.15.15-.3.45-.6.6-4.8,2.7-5.25,4.05-5.85,4.05-.75.45-.75,1.65-2.1,2.1-3.15,1.35-3.15,3.75-7.35,5.25-.15,0-.3,0-.45-.15-.15-.15-.45.3-.6.45-.75.15-1.5.9-3.3,1.2-.3.15-.45.15-.75.15-.75,0-1.8-.3-2.7-.6-1.65-.15-2.4-1.35-2.55-2.4v-.6c0-1.05.75-1.2,1.65-1.65.15-1.35,1.65-2.25,3-2.4.6-1.05,2.55-1.35,4.2-1.35,1.05,0,1.95.15,1.95.15.45,0,.75-.75,1.35-.9,5.7-.9,13.35-5.25,17.1-7.65,1.65-1.05,2.85-1.95,3.45-2.25.3-.3.3-.75.75-.75.15,0,3.15-2.25,4.2-2.55,9.9-7.8,12.15-10.05,16.35-13.2l1.65-1.5c1.05-.3,1.2-.45,1.2-.45.45-.45,2.25-2.4,4.8-4.2.45-.3.9-1.35,1.65-1.35.15,0,7.8-7.5,7.95-7.65l2.1-1.8c4.65-3.45,6.6-6.75,6.9-6.9,4.05-3.6,10.35-11.55,10.95-12,.6-.45,1.2-2.85,1.95-2.85.15,0,.6-.9.6-1.35.15-.9,1.35-1.8,1.35-2.1,3.15-4.65,5.4-6.15,5.7-6.15.6-.15.75-1.8,1.05-2.25l1.05-.9c.45-1.5,2.7-4.2,5.25-4.35l1.2.3h.45c.6,0,1.35.15,1.5.75,0,.75.15,1.35.15,1.8,0,1.65-.45,1.95-1.35,2.4-1.05,0-.9,1.35-1.35,1.8-1.95,1.35-5.25.6-6.75,3.3-1.05,1.95-5.25,5.4-7.95,15.75l-2.55,9.9c-.45,2.7-1.2,3-1.2,3.9v.9c-.9.9-2.55,9.9-3.15,9.75-.15,0-1.05,2.7-1.05,3.3-.15,2.55-1.2,2.55-1.05,2.85,0,.15-.15.45-.15.6s0,1.35-.45,1.8c-.3.3-.75,2.25-.75,2.55-2.25,7.35-6.6,13.65-7.65,15.15-.6.9-1.65,1.65-1.65,1.8-.9,2.1-3.9,5.1-4.5,5.1.15.6-1.65,1.2-1.65,1.2,0,1.05-1.35.6-1.35,1.35,0,0-4.65,3.75-8.55,3.75-.15,0-.3,0-.75.15-1.05.3-2.1.45-3.15.45-1.5,0-3-.15-4.2-.45-5.55-1.05-5.7-4.65-9.6-6.6-.45-.3-.6-.75-.6-1.35v-.6c0-.3,0-.6-.45-.6s-1.8-2.4-1.8-4.2c0-.45,0-.9.3-1.2.3-.3.15-2.4,1.05-2.4,1.65,0,1.95-1.8,4.35-1.8.15,0,.3,0,.45.15,1.05,1.05,2.55.15,2.55,2.7,0,.75-.15,1.8-.45,3.3.15.3.15.6.15.9,0,1.35-.9,2.55-.9,4.05,0,.3.15.6.15.9,1.35,3.9,3.6,5.55,7.35,5.55,2.55-.3,5.25-1.35,6.75-2.85l2.1-1.35c.6-.6.45-1.05,1.05-1.05,1.2-.3,1.65-1.35,3.15-3,.75-.75,1.8-2.55,2.55-3,.3-.15.6-.75.75-.9.6-1.2.9-1.2.9-1.2,0-.3.15-.45.3-.6,4.2-4.65,8.1-16.65,8.4-16.8,0-.15.15-.6.15-.75,1.05-1.65,1.95-6.15,2.1-6.15-.15,0,3.45-9.75,3.75-11.7,0-.3.45-2.1.75-2.25.15-.15.3-2.1.6-2.25v-.6c1.35-4.5,3-8.25,3-8.25,0,0-6.9,7.65-11.55,11.7l-3.3,2.85c-3.45,3-7.65,7.05-12.45,10.8Z"/>
    <path class="cls-1" d="M252.22,50.04h6.15c.15-.45,3-5.25,3-5.25,0,0,0-.75.6-1.05.15,0,5.1-8.4,5.1-8.7-.15-.15,1.8-3.15,1.8-4.65,0-.15.75-1.5,1.05-2.25s.75-1.8,1.8-2.1c.45-.15.6-.75,1.2-.75.15,0,.45-.15.6-.3.45-.45.75-.45,1.5-.45,1.5.6,1.65.75,1.65,1.05v.6c0,.9-.3,1.8-.3,2.85,0,.6.15.9.15,1.35,0,.3-.3.75-.45,1.05-.3,1.35-1.05,2.55-2.55,3.3-.45.15-.9,1.35-1.8,1.8-.3.15.15,1.8-.75,2.1-.45.15-1.05,1.8-1.35,2.25l-5.7,9.15s1.65-.15,3.3-.15c.75,0,1.5,0,1.8.15l1.65-.15c2.4,0,9.45,0,10.05-.15.3-.15.75-.3,1.2-.3.3,0,.9-.15,1.35-.15.3,0,.45,0,.75.15h1.5c2.1,0,2.55-.45,3.9-.45.15,0,.3.15.3.3s-.15.45-.15.45c.15.15.15.3.15.45,0,.75-.75,1.65-1.65,1.65-.6.3-1.2.45-1.8.45-1.8,0-2.25-.6-3.75-.6h-14.85c-1.65,0-4.65.15-4.65.15,0,0-1.35,2.55-1.8,2.85-.3.15-.6.6-.6.75,0,0-1.2,2.1-1.2,2.4,0,.45-.15.9-.45.9-.6,0-1.95,3.75-7.8,13.2-.15.15-.9,1.95-1.65,2.1-.15.15-.45.3-.45.6-.6,2.25-2.4,4.8-2.4,4.95-.15.75-1.2,2.25-1.8,2.7-.9.45-4.65,8.25-5.55,9.45-.15.15-.15.6-.3.9-1.05,2.1-1.05,3-1.05,4.2,0,.9.3,1.35.6,1.8.3.45.45.75.9.9.15,0,.45.3.75.3s.6,0,.9-.15c.75-.15.9-.15,1.05-.15s.3-.15.9-.45c.45-.15.6-.45.9-.45.15,0,1.5-.9,2.55-1.35.9-.3,1.65-.9,2.4-1.35l2.1-1.35c0-.15.75-.6,1.35-1.2l.6-.6c.45-.15,1.65-1.35,2.4-1.95,1.2-.75,1.35-.9,1.35-.9.3,0,.45.15.45.45s-.45.9-.9,1.35c0,0-.9.75-1.65,1.5-2.1,2.25-5.25,4.65-6.3,5.25-.45.9-2.55,1.05-3.3,2.4,0,.15-1.05,0-1.2.45-.15.3-3.9,2.4-7.35,2.4-1.5,0-2.4-.75-3.45-1.95-.45-.45-.9-2.1-.9-2.25.15-.15-.3-.3-.3-1.5,0-.3.15-.6.15-1.05,0-.75.45-2.4.45-2.55.15-.3,0-.6.45-1.05.45-.45.15-1.05.45-1.5.15-.15,0-.45.3-.45.15,0,.15-.45.3-.6l.6-1.05c.75-.75,2.55-4.95,3.75-6,2.55-5.55,9-14.25,10.35-17.55.15-.3,2.7-3.45,4.35-7.35.15-.45.75-.75.9-1.2.6-1.35,2.4-3.9,2.7-4.8.6-.75.75-1.05.75-1.05h-11.55c-.45,0-.9-.15-1.95-.15,0,.15-.15.15-.45.15-.45,0-1.05-.15-1.2-.15-.3,0-.6.15-.9.15l-.9-.15c-.6,0-1.05.15-2.1.15h-1.35c-.45,0-.75-.15-1.05-.15s-.6.15-.9.15l-3.45.3c-.3,0-.45,0-.6-.15-.15.15-.3.3-.45.3-.3,0-3.15-.45-3.15-.9v-.45l1.8-.75c.15-.15.75-.3,1.05-.3.15,0,.6-.45.6-.45,0,0,1.2.3,2.55.3.15,0,.3.15.9.15h1.8c.3-.3.6-.15.9-.3l1.2.3c.3,0,.75,0,.9-.15.15,0,.45.15.75.15s.75,0,1.35.15h.9c.15,0,.45-.15.6-.15l9.6.15Z"/>
    <path class="cls-1" d="M294.52,82.29c-1.2.45-3.6.6-4.5.6-1.05,0-1.8-.15-1.8-.15l-.6-.15c-.75,2.25-1.95,4.35-3,5.4l-.9,1.5c-.15,1.05-1.65,2.1-1.95,3.3-.15.9-6.6,8.1-9,8.4-.75.15-2.85,2.85-7.5,2.85-2.25-.15-4.95-.6-6.75-4.95v-.9s-.45-1.05-.45-2.7c0-1.2.45-3.45,1.5-5.7l1.35-2.55c-.45.3-1.2,1.35-2.7,2.7-.6.6-1.5,1.35-1.95,1.35-.3,0-.3-.15-.3-.3,0-.45.3-1.05.75-1.35,2.7-2.55,4.5-4.5,4.5-4.5-.15.15.75-1.5,2.25-2.55,0-.15.15-.45.3-.45,1.5-3.3,6.6-6.75,7.2-8.1,0-1.2,2.7-1.65,3.3-2.25,2.25-3.15,5.1-3.45,5.85-3.45h.9c1.5,0,3,.45,4.2,1.65.75.75,1.5,1.5,1.8,2.25.15,0,.3.15.3.3.6.3,1.05,1.2,1.2,1.95.3.6.3,1.05.45,1.65.15.3.15,1.05.15,2.1,0,.45-.3.9-.3,1.2.15.45,1.35,1.5,2.85,1.5s2.85-.3,2.85-.3c.3,0,1.05,0,1.05.45,0,.75-.3.9-1.05,1.2ZM268.42,81.54c-.15.75-.9,1.35-.9,1.35,0,0-3.45,4.65-3.45,10.05,0,1.2,0,2.55.6,3.75.75,1.35,1.05,1.5,1.35,1.8.15.15,0,.3.45.3.3,0,1.5.45,2.1.45,7.5-.15,12.9-9.45,12.6-9.45,0-.6,1.2-1.05,1.2-1.8.45-1.05,1.95-3.75,2.4-6-.45-.3-1.8-.75-1.95-1.2-.15-.45-.9-1.5-.9-3.3v-1.35c0-.3-.3-.45-.3-1.2l.6-1.8c0-.15-.3-.9-.45-1.05-.6-.45-1.5-.75-2.55-.75-1.2.3-2.7.75-3,1.05,0,0-3.9,2.7-7.8,9.15Z"/>
    <path class="cls-1" d="M321.52,76.89c0,.3-.9,1.8-1.05,2.25-.75,3-4.35,1.05-5.4,3.75-.15.45-.9,0-1.35,0-.3,0-.6.6-.75.6-.75-.15-3.6,5.1-4.2,6.15-1.2,1.8-2.7,4.8-2.7,5.25,0,.3,0,.6-.15.75-.3,1.05-.9,2.4-.9,3.6,0,.75.15,2.1,3,2.1,4.5,0,15.6-9.9,16.35-10.5s1.05-.9,1.5-.9c.3,0,.45.45.45.45,0,.6-1.95,2.25-2.25,2.55l-2.85,2.7c-.15.15-1.95,1.5-1.95,1.8-.3.75-.6.75-.9.75-.15,0-.45,0-.6.3-.15.3-1.05.9-1.65,1.35-3.75,2.85-8.85,4.5-11.7,4.5-.45,0-.9,0-1.35-.15h-.75c-2.4-.45-3.9-2.55-3.45-4.05,0-.15-.3-.3-.3-.45s.15-.45.15-1.2c0-1.05.45-1.35.45-1.35,0-1.65,2.1-4.95,6.3-9,2.25-2.1,7.8-5.7,8.1-9.15-.6-.75-1.95-.9-1.95-.9l-1.5-.3-1.35-.75c-.45,0-.75-.75-.75-.75-.6-.6-.75-2.55-1.35-2.85,0,0-2.4,3-3.45,3.9-.15.15-1.05,1.05-1.2,1.05l-1.2.9c-.45.45-.6.45-1.5,1.05-1.2.75-2.85,1.5-4.8,1.8-.45,0-.75-.15-.75-.45,0-.45.3-.9.75-1.05.3,0,1.35-.3,1.65-.45,2.25-.75,3.15-1.5,4.5-2.25.15,0,.9-.9,1.2-1.2.6-.45,2.85-2.25,2.85-3.45,0-.15-.45-.75-.45-.9,0-.3-.3-.45-.3-1.05v-1.05c0-.15.15-.45.45-.75l.3-1.05c0-1.2,2.4-2.4,4.05-3l.45-.15c.3-.15.6.75.9.75h1.05c0,.3.6.3,1.05.3s.3.75.45,1.05c0,.15.15.3.15.6v.6c0,.15-.75,1.2-.75,1.35,0,.6-.9,1.35-.9,2.1v1.2c0,.9.9,2.85,1.35,2.85h.9c.15,0,.9-.45,1.2-.45.15,0,.45,0,.6.15.3,0,.75-.6.9-.6.45-.15,1.2-.45,1.35-.45s.45.3.75.3l1.65-.6c.3,0,.3.9.45.9.6.15,1.2,1.5,1.2,1.5Z"/>
    <path class="cls-1" d="M336.97,129.09c-.45.3-3.15,5.4-4.95,6.75-.3.15-.6.9-.9,1.35s-.75.6-.75.9c0,1.2-10.95,12-11.25,13.5-.15.45-1.2.6-1.65,1.35-.3.45-.45.6-.45.6,0,.3-1.35,1.95-2.25,2.4-1.95,1.05-4.2,5.4-9.45,5.4-.9,0-1.65-.15-1.65-.3s0-.3-.3-.3c-1.05,0-1.65-1.65-1.65-3.75,0-2.7,1.2-6.75,2.4-7.8.15-.15.3-1.35.45-1.65,0-.3.45-.45.6-.75,2.7-5.1,7.35-10.05,7.95-10.35.45-.15.45-.75.75-.9.75-.45.9-.9,1.05-1.05l4.05-3.9c.45-.15,1.35-1.2,1.65-1.5,3.15-3.15,5.25-4.65,7.2-5.85,0,0,1.5-1.5,4.65-3.45,4.05-2.55,4.8-3.15,8.25-5.4l1.65-2.7c.15-.15,5.1-8.7,5.25-8.7.3-.3.9-1.35.9-1.5,0-.3,1.8-2.4,1.65-2.85,0-.6.45-.9.75-1.2,1.35-2.25,1.5-2.25,1.95-2.7,0-.15,0-.75.15-.9.6-.75,7.05-10.8,7.05-12,0-.75-7.5,6-15.6,13.8-1.8,1.8-2.7,2.55-3,2.55-.75.15-5.4,4.2-6.15,4.35-.45.15-.75.9-2.55,1.5-.75.3-2.1.6-3.45.6-.45,0-.9,0-1.35-.3-1.8-.9-2.25-2.1-2.25-3.15,0-1.95,2.25-5.4,3-7.05.15-.15,1.2-2.7,1.5-3,1.2-1.2,1.65-2.85,1.95-3.15.3-.3,1.65-.9,1.65-1.2s.15-1.05.3-1.35c.3-.6,3.9-6.75,3.6-6.6-.15.15-5.7,6.75-6.6,6.75-.3,0-1.65,1.95-1.95,1.95-.15,0-1.5,1.65-2.55,2.7-.3.3-.9.9-1.35.9-.3,0-.3-.3-.3-.45.15-.9,4.2-4.8,4.8-5.4l2.25-2.85c1.2-.3,4.95-5.1,5.25-5.55,1.05-1.35,4.5-4.65,4.5-8.1.15-.75.15-2.7.15-2.7,0,0,.6-.3,1.2-.3.45,0,.9.15,1.35.6.75.75.75.45,1.5,1.2.75.6,1.2.45,1.5.6.15.15.3.75.3,1.35,0,.9-.15,1.95-.15,2.25-.75,2.1-4.5,9.3-5.1,9.3-.15,0-1.65,2.85-1.95,3.3-.45.6-3.3,6.45-5.85,10.05-.15.3-.45.6-.45.9,0,.15-2.85,5.55-2.7,5.85,0,.15-.3.6-.3.75,0,.45.45.6,1.05.6.75-.15,1.65-.9,2.1-1.2,3.45-1.5,5.55-4.8,6-4.8s1.95-1.5,1.95-1.5c2.25-1.35,3-2.7,6.3-5.7,3.75-3.45,10.95-10.05,11.25-10.2.9,0,.6-.9,1.05-1.05,1.05-.45,1.2-1.2,1.35-1.35,0,0,1.05-1.8,2.1-1.8.15,0,.3,0,.45.15,0,0,.75-.15,1.05-.3.15-.15.3-.15.45-.15,1.35,0,1.65,2.25,1.65,3.6-.15,1.35-2.4,4.95-2.4,4.95,0,0-.15.45-.3.75-.3.75-1.2,1.35-1.95,3-.3.75-.45.9-.9,1.65-.15.3-1.95,3.75-3,4.65-1.5,1.2-1.95,3.45-8.7,13.2l-.75,1.2c0,.3-1.35,2.1-1.35,2.1,0,0,4.2-2.55,5.4-3.9,3.45-2.7,7.5-6.15,9.6-7.8.45-.45.75-.45,1.05-.45s.45.15.6.15c0,.45-.9,1.05-2.1,1.95l-1.8,1.8c-1.65,1.05-2.85,2.55-3.45,2.85-1.35.75-6.75,5.4-7.95,6.15-.3.3-2.7,1.95-2.7,1.95,0,0-1.05,1.8-1.8,2.85,0,0-3.3,4.65-3.15,4.95.15.3-1.5,2.1-1.65,2.55-.3,1.2-1.5,3-1.95,3.6-.9,1.5-1.5,2.4-1.8,2.7ZM336.07,122.49c0-.75,3.3-5.55,3.3-5.55,0,0-12.6,7.95-14.55,10.95-.45.6-.9.6-1.65,1.5-.3.3-.6.3-.9.75-.3.45-1.05,1.35-1.65,1.8-7.95,7.35-10.5,14.55-10.5,14.7-.9,2.25-.45,2.55-.9,3.75-.15.3-.45.75-.45.9,0,.75.15.9.15,1.2,0,.15,0,.3-.15.75v.6c0,.9.45,1.2.9,1.2.3,0,.45.3.75.3,8.7-.9,22.8-28.2,22.8-28.2l2.85-4.65ZM366.51,95.64c.15,0,.3.15.3.45,0,.6-1.2,1.35-1.2,1.35,0,0-.3-.3-.3-.45s0-.45.3-.45c.6-.3.45-.6.9-.9ZM368.76,93.24c.6-.6,1.2-1.35,1.65-1.65l.6-.6c.3-.45.9-1.05,1.05-1.05s.6.15.6.45c0,.15-.15.45-.3.75-.3.45-1.2,1.35-1.65,1.5-.3.15-2.7,3-3.45,3-.15,0-.3-.15-.3-.45.15-.45.9-1.2,1.8-1.95Z"/>
  </g>
  <g id="mask">
    <path class="cls-2" d="M9.78,24.9l69.49-2.61-18.63-11.4L6,107.38c16.16-8.62,36.82-21.69,57.82-41.14,19.58-18.12,33.55-36.31,43.21-50.96l-4.12-9.28c-38.46,54.66-64.91,94.32-62.17,96.41,2.82,2.16,35.82-35.98,39.28-33.17,2.69,2.18-17.48,24.91-12.3,31.2,6.83,8.29,51.63-19.47,51.45-27.3-.06-2.6-1.39-4.1-1.39-4.1s-1.66-1.87-5.32-1.97c-8.39-.23-31.77,30.44-26.05,36.52,2.52,2.69,11.09.97,33.96-13.2,4.28,5.77,11.7,9.94,21.15,11.7,12.81,2.39,24.63-2.97,56.85-34.5,13.18-12.9,32.26-28.91,51.11-49.98-12.21,18.48-20.69,33.46-24.12,45.2-3.09,10.56-5.58,23.25-16.64,33.6-2.75,2.58-10.43,9.77-16.95,7.48-5.23-1.84-8.52-9.37-8.17-15.45.96-16.76,30.13-32.98,57.67-36.6,26.24-3.45,44.49,5.38,48.45-1.65,2.94-5.23-5.42-15.42-14.18-24.86-33.43,47.02-46.84,72.68-42.51,76.46,3.32,2.9,17.72-6.91,43.2-29.4-16.77,20.83-18.11,27.4-16.28,29.57,2.76,3.27,15.63-.03,21.83-9.17,7.03-10.37,1.5-22.42,1.21-23.01.25,6.04,2.91,11.48,7.04,13.11,5.92,2.35,15.93-2.71,18.94-14.19l9.2,9.2c-16.83,18.54-17.17,24.22-15.92,25.69,1.94,2.28,11.77-4.39,19.7-10.27,11.33-8.4,19.29-16.98,23.42-23.98-15.74,24.78-16.31,31.31-14.37,32.98,2.04,1.75,7.74-1.66,33.43-24.69-10.89,31.76-25.96,52.15-37.88,64.93-6.86,7.36-15.73,19.92-21.17,16.75-6.04-3.53,2.73-19.24,12.15-28.42,10.97-10.68,27.44-20.58,56.63-41.36"/>
  </g>
</svg>