<?xml version="1.0" encoding="UTF-8"?>
<svg id="_レイヤー_2" data-name="レイヤー_2" xmlns="http://www.w3.org/2000/svg" xmlns:xlink="http://www.w3.org/1999/xlink" viewBox="0 0 131.41 144.95">
  <defs>
    <style>
      .cls-1 {
        fill: none;
      }

      .cls-2 {
        fill: #401f0f;
      }

      .cls-3 {
        clip-path: url(#clippath);
      }
    </style>
    <clipPath id="clippath">
      <rect class="cls-1" x="6.26" y="30.18" width="118.9" height="84.58" transform="translate(-29.46 95.12) rotate(-61.19)"/>
    </clipPath>
  </defs>
  <g id="_画像" data-name="画像">
    <g class="cls-3">
      <g>
        <path class="cls-2" d="M102.72-2.45s-3.64-2.85-6.15-7.91c-1.24-2.53-2.18-5.62-2.19-9.2-.02-3.59.97-7.68,3.3-12.25l3.23-11.06,18.38-1.84s3.5,6.15,6.28,13.57c2.74,7.42,4.55,16.11,1.61,20.84-2.93,4.73-6.17,9.13-10.08,11.12-3.91,1.99-8.53,1.55-14.39-3.28Z"/>
        <path class="cls-2" d="M77.71,99.7s3.41-2.84,5.35-7.93c.96-2.55,1.59-5.65,1.18-9.22-.45-3.57-1.88-7.6-4.91-11.96l-4.84-10.6-18.48-.3s-2.57,6.07-4.24,13.16c-1.61,7.11-2.63,15.23.82,19.63,6.9,8.76,14.27,16.8,25.12,7.22Z"/>
        <path class="cls-2" d="M74.66,57.18l-18.47-.25s-1.23-5.07-.93-10.13c.3-5.07,2.16-10.16,8.28-10.31,7.76-.18,10.56,4.98,11.38,10.21.84,5.23-.26,10.48-.26,10.48Z"/>
      </g>
    </g>
  </g>
</svg>